<mxfile host="app.diagrams.net" agent="Mozilla/5.0 (Windows NT 10.0; Win64; x64) AppleWebKit/537.36 (KHTML, like Gecko) Chrome/127.0.0.0 Safari/537.36" version="24.7.6">
  <diagram name="Seite-1" id="ZcHCWkOTectr2VYjBxJF">
    <mxGraphModel dx="1434" dy="2033" grid="1" gridSize="10" guides="1" tooltips="1" connect="1" arrows="1" fold="1" page="1" pageScale="1" pageWidth="827" pageHeight="1169" math="0" shadow="0">
      <root>
        <mxCell id="0" />
        <mxCell id="1" parent="0" />
        <mxCell id="8hGoLf-4_tVK60WM2LeV-1" value="Bundler" style="rounded=1;whiteSpace=wrap;html=1;" vertex="1" parent="1">
          <mxGeometry x="80" y="110" width="120" height="60" as="geometry" />
        </mxCell>
        <mxCell id="8hGoLf-4_tVK60WM2LeV-2" value="" style="endArrow=classic;html=1;rounded=0;" edge="1" parent="1">
          <mxGeometry width="50" height="50" relative="1" as="geometry">
            <mxPoint x="139.5" as="sourcePoint" />
            <mxPoint x="139.5" y="110" as="targetPoint" />
          </mxGeometry>
        </mxCell>
        <mxCell id="8hGoLf-4_tVK60WM2LeV-3" value="RPC Call" style="edgeLabel;html=1;align=center;verticalAlign=middle;resizable=0;points=[];" vertex="1" connectable="0" parent="8hGoLf-4_tVK60WM2LeV-2">
          <mxGeometry x="-0.2364" y="1" relative="1" as="geometry">
            <mxPoint as="offset" />
          </mxGeometry>
        </mxCell>
        <mxCell id="8hGoLf-4_tVK60WM2LeV-4" value="" style="endArrow=classic;html=1;rounded=0;exitX=1;exitY=0.5;exitDx=0;exitDy=0;" edge="1" parent="1" source="8hGoLf-4_tVK60WM2LeV-1">
          <mxGeometry width="50" height="50" relative="1" as="geometry">
            <mxPoint x="390" y="250" as="sourcePoint" />
            <mxPoint x="280" y="140" as="targetPoint" />
          </mxGeometry>
        </mxCell>
        <mxCell id="8hGoLf-4_tVK60WM2LeV-9" value="" style="edgeStyle=orthogonalEdgeStyle;rounded=0;orthogonalLoop=1;jettySize=auto;html=1;" edge="1" parent="1" source="8hGoLf-4_tVK60WM2LeV-6" target="8hGoLf-4_tVK60WM2LeV-1">
          <mxGeometry relative="1" as="geometry" />
        </mxCell>
        <mxCell id="8hGoLf-4_tVK60WM2LeV-6" value="" style="rhombus;whiteSpace=wrap;html=1;" vertex="1" parent="1">
          <mxGeometry x="280" y="115" width="50" height="50" as="geometry" />
        </mxCell>
        <mxCell id="8hGoLf-4_tVK60WM2LeV-8" value="Response Cache" style="rounded=1;whiteSpace=wrap;html=1;" vertex="1" parent="1">
          <mxGeometry x="370" y="10" width="120" height="60" as="geometry" />
        </mxCell>
        <mxCell id="8hGoLf-4_tVK60WM2LeV-11" value="" style="endArrow=classic;startArrow=classic;html=1;rounded=0;entryX=0;entryY=0.5;entryDx=0;entryDy=0;exitX=0.5;exitY=0;exitDx=0;exitDy=0;" edge="1" parent="1" source="8hGoLf-4_tVK60WM2LeV-6" target="8hGoLf-4_tVK60WM2LeV-8">
          <mxGeometry width="50" height="50" relative="1" as="geometry">
            <mxPoint x="390" y="250" as="sourcePoint" />
            <mxPoint x="440" y="200" as="targetPoint" />
            <Array as="points">
              <mxPoint x="305" y="40" />
            </Array>
          </mxGeometry>
        </mxCell>
        <mxCell id="8hGoLf-4_tVK60WM2LeV-12" value="is cached" style="edgeLabel;html=1;align=center;verticalAlign=middle;resizable=0;points=[];" vertex="1" connectable="0" parent="8hGoLf-4_tVK60WM2LeV-11">
          <mxGeometry x="-0.2143" y="-1" relative="1" as="geometry">
            <mxPoint as="offset" />
          </mxGeometry>
        </mxCell>
        <mxCell id="8hGoLf-4_tVK60WM2LeV-13" value="Offchain RPC&lt;br&gt;(your API)" style="rounded=1;whiteSpace=wrap;html=1;" vertex="1" parent="1">
          <mxGeometry x="370" y="210" width="120" height="60" as="geometry" />
        </mxCell>
        <mxCell id="8hGoLf-4_tVK60WM2LeV-14" value="" style="endArrow=classic;startArrow=classic;html=1;rounded=0;entryX=0;entryY=0.5;entryDx=0;entryDy=0;exitX=0.5;exitY=1;exitDx=0;exitDy=0;" edge="1" parent="1" source="8hGoLf-4_tVK60WM2LeV-6" target="8hGoLf-4_tVK60WM2LeV-13">
          <mxGeometry width="50" height="50" relative="1" as="geometry">
            <mxPoint x="315" y="125" as="sourcePoint" />
            <mxPoint x="380" y="50" as="targetPoint" />
            <Array as="points">
              <mxPoint x="305" y="240" />
            </Array>
          </mxGeometry>
        </mxCell>
        <mxCell id="8hGoLf-4_tVK60WM2LeV-15" value="not cached" style="edgeLabel;html=1;align=center;verticalAlign=middle;resizable=0;points=[];" vertex="1" connectable="0" parent="8hGoLf-4_tVK60WM2LeV-14">
          <mxGeometry x="-0.2143" y="-1" relative="1" as="geometry">
            <mxPoint as="offset" />
          </mxGeometry>
        </mxCell>
        <mxCell id="8hGoLf-4_tVK60WM2LeV-16" value="" style="endArrow=classic;html=1;rounded=0;dashed=1;entryX=0.5;entryY=1;entryDx=0;entryDy=0;exitX=0.5;exitY=0;exitDx=0;exitDy=0;" edge="1" parent="1" source="8hGoLf-4_tVK60WM2LeV-13" target="8hGoLf-4_tVK60WM2LeV-8">
          <mxGeometry width="50" height="50" relative="1" as="geometry">
            <mxPoint x="390" y="250" as="sourcePoint" />
            <mxPoint x="440" y="200" as="targetPoint" />
          </mxGeometry>
        </mxCell>
        <mxCell id="8hGoLf-4_tVK60WM2LeV-17" value="save into cache&lt;br&gt;if UserOp successful" style="edgeLabel;html=1;align=center;verticalAlign=middle;resizable=0;points=[];" vertex="1" connectable="0" parent="8hGoLf-4_tVK60WM2LeV-16">
          <mxGeometry x="-0.3429" y="1" relative="1" as="geometry">
            <mxPoint x="1" y="-24" as="offset" />
          </mxGeometry>
        </mxCell>
        <mxCell id="8hGoLf-4_tVK60WM2LeV-18" value="Your Smart Wallet&lt;br&gt;(Account Abstraction)" style="rounded=1;whiteSpace=wrap;html=1;" vertex="1" parent="1">
          <mxGeometry x="80" y="-60" width="120" height="60" as="geometry" />
        </mxCell>
      </root>
    </mxGraphModel>
  </diagram>
</mxfile>
